<svg width="20" height="20" viewBox="0 0 20 20" fill="none" xmlns="http://www.w3.org/2000/svg">
<path opacity="0.4" d="M18.3335 9.99991C18.3335 14.5957 14.5952 18.3332 10.0002 18.3332C5.4052 18.3332 1.66687 14.5957 1.66687 9.99991C1.66687 5.40491 5.4052 1.66658 10.0002 1.66658C14.5952 1.66658 18.3335 5.40491 18.3335 9.99991Z" fill="#F0C778"/>
<path d="M13.5174 8.79791C13.5174 8.95708 13.4566 9.11708 13.3349 9.23875L10.4433 12.1446C10.3258 12.2621 10.1666 12.3279 9.99994 12.3279C9.8341 12.3279 9.67494 12.2621 9.55744 12.1446L6.6641 9.23875C6.42077 8.99458 6.42077 8.59958 6.66577 8.35541C6.91077 8.11208 7.3066 8.11291 7.54994 8.35708L9.99994 10.8179L12.4499 8.35708C12.6933 8.11291 13.0883 8.11208 13.3333 8.35541C13.4566 8.47708 13.5174 8.63791 13.5174 8.79791Z" fill="#F0C778"/>
</svg>
