<svg width="20" height="20" viewBox="0 0 20 20" fill="none" xmlns="http://www.w3.org/2000/svg">
<path opacity="0.4" d="M1.66646 10.0001C1.66646 5.40425 5.4048 1.66675 9.9998 1.66675C14.5948 1.66675 18.3331 5.40425 18.3331 10.0001C18.3331 14.5951 14.5948 18.3334 9.9998 18.3334C5.4048 18.3334 1.66646 14.5951 1.66646 10.0001Z" fill="#F0C778"/>
<path d="M6.48256 11.2021C6.48256 11.0429 6.54339 10.8829 6.66506 10.7612L9.55673 7.85541C9.67423 7.73791 9.8334 7.67208 10.0001 7.67208C10.1659 7.67208 10.3251 7.73791 10.4426 7.85541L13.3359 10.7612C13.5792 11.0054 13.5792 11.4004 13.3342 11.6446C13.0892 11.8879 12.6934 11.8871 12.4501 11.6429L10.0001 9.18208L7.55006 11.6429C7.30673 11.8871 6.91173 11.8879 6.66673 11.6446C6.5434 11.5229 6.48256 11.3621 6.48256 11.2021Z" fill="#F0C778"/>
</svg>
