<svg width="75" height="75" viewBox="0 0 75 75" fill="none" xmlns="http://www.w3.org/2000/svg">
<rect width="75" height="75" rx="5" fill="#121212"/>
<g filter="url(#filter0_i)">
<rect width="67" height="67" transform="matrix(1 0 0 -1 4 71)" fill="url(#paint0_linear)"/>
</g>
<path fill-rule="evenodd" clip-rule="evenodd" d="M0 7.70313C0 4.55338 2.54384 2 5.68182 2H69.3182C72.4562 2 75 4.55338 75 7.70312V69.2969C75 72.4466 72.4562 75 69.3182 75H5.68182C2.54384 75 0 72.4466 0 69.2969V7.70313ZM5.68182 6.5625C5.05422 6.5625 4.54545 7.07318 4.54545 7.70313L5.11364 9.98438V13.9766L5.68182 16.2578L5.11364 23.1016L4.54545 38.5V45.9141L5.11364 53.8984L4.54545 69.2969C4.54545 69.9268 5.05422 70.4375 5.68182 70.4375H69.3182C69.9458 70.4375 70.4545 69.9268 70.4545 69.2969V51.0469L69.8864 34.5078L70.4545 20.8203L69.8864 13.9766L70.4545 7.70312C70.4545 7.07318 69.9458 6.5625 69.3182 6.5625H60.7955L52.2727 5.99219L36.9318 7.13281L20.4545 7.70313L14.2045 6.5625H5.68182Z" fill="#343434"/>
<path fill-rule="evenodd" clip-rule="evenodd" d="M0 5.70313C0 2.55338 2.54384 0 5.68182 0H69.3182C72.4562 0 75 2.55338 75 5.70312V67.2969C75 70.4466 72.4562 73 69.3182 73H5.68182C2.54384 73 0 70.4466 0 67.2969V5.70313ZM5.68182 4.5625C5.05422 4.5625 4.54545 5.07318 4.54545 5.70313L3.97727 9.69531L4.54545 11.9766L3.97727 17.1094L4.54545 20.5312L5.11364 33.6484L3.97727 45.0547L4.54545 56.4609V67.2969C4.54545 67.9268 5.05422 68.4375 5.68182 68.4375H14.7727H21.0227H27.8409H37.5H45.4545H46.5909H49.4318H53.4091H61.9318H69.3182C69.9458 68.4375 70.4545 67.9268 70.4545 67.2969L71.0227 49.6172L70.4545 36.5L69.8864 28.5156L71.0227 21.1016L70.4545 5.70312C70.4545 5.07318 69.9458 4.5625 69.3182 4.5625L61.9318 3.99219L53.4091 4.5625H37.5L34.0909 3.99219L33.3779 4.20691C32.0497 4.60685 30.6094 4.31183 29.5455 3.42188L26.7045 4.5625L25.8523 4.84766L21.5909 4.5625L13.6364 3.99219L5.68182 4.5625Z" fill="url(#paint1_linear)"/>
<rect width="75" height="75" rx="5" fill="#121212"/>
<g filter="url(#filter1_i)">
<rect width="65.9091" height="65.9091" transform="matrix(1 0 0 -1 4.54547 70.4545)" fill="url(#paint2_linear)"/>
</g>
<path fill-rule="evenodd" clip-rule="evenodd" d="M0 7.95455C0 4.81657 2.54384 2.27273 5.68182 2.27273H69.3182C72.4562 2.27273 75 4.81656 75 7.95455V69.3182C75 72.4562 72.4562 75 69.3182 75H5.68182C2.54384 75 0 72.4562 0 69.3182V7.95455ZM5.68182 6.81818C5.05422 6.81818 4.54545 7.32695 4.54545 7.95455V69.3182C4.54545 69.9458 5.05422 70.4545 5.68182 70.4545H69.3182C69.9458 70.4545 70.4545 69.9458 70.4545 69.3182V7.95455C70.4545 7.32695 69.9458 6.81818 69.3182 6.81818H5.68182Z" fill="#3F5833"/>
<path fill-rule="evenodd" clip-rule="evenodd" d="M0 5.68182C0 2.54384 2.54384 0 5.68182 0H69.3182C72.4562 0 75 2.54384 75 5.68182V67.0455C75 70.1834 72.4562 72.7273 69.3182 72.7273H5.68182C2.54384 72.7273 0 70.1834 0 67.0455V5.68182ZM5.68182 4.54545C5.05422 4.54545 4.54545 5.05422 4.54545 5.68182V67.0455C4.54545 67.673 5.05422 68.1818 5.68182 68.1818H69.3182C69.9458 68.1818 70.4545 67.673 70.4545 67.0455V5.68182C70.4545 5.05422 69.9458 4.54545 69.3182 4.54545H5.68182Z" fill="url(#paint3_linear)"/>
<path fill-rule="evenodd" clip-rule="evenodd" d="M54.3333 69L57 73H51L48.3333 69H54.3333Z" fill="url(#paint4_linear)"/>
<g filter="url(#filter2_d)">
<path fill-rule="evenodd" clip-rule="evenodd" d="M51 73L47.6667 68H41.6667L45 73H51Z" fill="url(#paint5_linear)"/>
</g>
<path fill-rule="evenodd" clip-rule="evenodd" d="M27.6667 69L25 73H19L21.6667 69H27.6667Z" fill="url(#paint6_linear)"/>
<g filter="url(#filter3_d)">
<path fill-rule="evenodd" clip-rule="evenodd" d="M31 73L34.3333 68H28.3333L25 73H31Z" fill="url(#paint7_linear)"/>
</g>
<g filter="url(#filter4_d)">
<path d="M35 67H41L45 73H31L35 67Z" fill="url(#paint8_linear)"/>
</g>
<defs>
<filter id="filter0_i" x="4" y="4" width="67" height="67" filterUnits="userSpaceOnUse" color-interpolation-filters="sRGB">
<feFlood flood-opacity="0" result="BackgroundImageFix"/>
<feBlend mode="normal" in="SourceGraphic" in2="BackgroundImageFix" result="shape"/>
<feColorMatrix in="SourceAlpha" type="matrix" values="0 0 0 0 0 0 0 0 0 0 0 0 0 0 0 0 0 0 127 0" result="hardAlpha"/>
<feOffset/>
<feGaussianBlur stdDeviation="5"/>
<feComposite in2="hardAlpha" operator="arithmetic" k2="-1" k3="1"/>
<feColorMatrix type="matrix" values="0 0 0 0 0 0 0 0 0 0 0 0 0 0 0 0 0 0 1 0"/>
<feBlend mode="normal" in2="shape" result="effect1_innerShadow"/>
</filter>
<filter id="filter1_i" x="4.54547" y="4.54546" width="65.9091" height="65.9091" filterUnits="userSpaceOnUse" color-interpolation-filters="sRGB">
<feFlood flood-opacity="0" result="BackgroundImageFix"/>
<feBlend mode="normal" in="SourceGraphic" in2="BackgroundImageFix" result="shape"/>
<feColorMatrix in="SourceAlpha" type="matrix" values="0 0 0 0 0 0 0 0 0 0 0 0 0 0 0 0 0 0 127 0" result="hardAlpha"/>
<feOffset/>
<feGaussianBlur stdDeviation="5"/>
<feComposite in2="hardAlpha" operator="arithmetic" k2="-1" k3="1"/>
<feColorMatrix type="matrix" values="0 0 0 0 0 0 0 0 0 0 0 0 0 0 0 0 0 0 1 0"/>
<feBlend mode="normal" in2="shape" result="effect1_innerShadow"/>
</filter>
<filter id="filter2_d" x="39.6667" y="66" width="13.3333" height="9" filterUnits="userSpaceOnUse" color-interpolation-filters="sRGB">
<feFlood flood-opacity="0" result="BackgroundImageFix"/>
<feColorMatrix in="SourceAlpha" type="matrix" values="0 0 0 0 0 0 0 0 0 0 0 0 0 0 0 0 0 0 127 0"/>
<feOffset/>
<feGaussianBlur stdDeviation="1"/>
<feColorMatrix type="matrix" values="0 0 0 0 0 0 0 0 0 0 0 0 0 0 0 0 0 0 0.5 0"/>
<feBlend mode="normal" in2="BackgroundImageFix" result="effect1_dropShadow"/>
<feBlend mode="normal" in="SourceGraphic" in2="effect1_dropShadow" result="shape"/>
</filter>
<filter id="filter3_d" x="23" y="66" width="13.3333" height="9" filterUnits="userSpaceOnUse" color-interpolation-filters="sRGB">
<feFlood flood-opacity="0" result="BackgroundImageFix"/>
<feColorMatrix in="SourceAlpha" type="matrix" values="0 0 0 0 0 0 0 0 0 0 0 0 0 0 0 0 0 0 127 0"/>
<feOffset/>
<feGaussianBlur stdDeviation="1"/>
<feColorMatrix type="matrix" values="0 0 0 0 0 0 0 0 0 0 0 0 0 0 0 0 0 0 0.5 0"/>
<feBlend mode="normal" in2="BackgroundImageFix" result="effect1_dropShadow"/>
<feBlend mode="normal" in="SourceGraphic" in2="effect1_dropShadow" result="shape"/>
</filter>
<filter id="filter4_d" x="29" y="65" width="18" height="10" filterUnits="userSpaceOnUse" color-interpolation-filters="sRGB">
<feFlood flood-opacity="0" result="BackgroundImageFix"/>
<feColorMatrix in="SourceAlpha" type="matrix" values="0 0 0 0 0 0 0 0 0 0 0 0 0 0 0 0 0 0 127 0"/>
<feOffset/>
<feGaussianBlur stdDeviation="1"/>
<feColorMatrix type="matrix" values="0 0 0 0 0 0 0 0 0 0 0 0 0 0 0 0 0 0 0.5 0"/>
<feBlend mode="normal" in2="BackgroundImageFix" result="effect1_dropShadow"/>
<feBlend mode="normal" in="SourceGraphic" in2="effect1_dropShadow" result="shape"/>
</filter>
<linearGradient id="paint0_linear" x1="33.5" y1="0" x2="33.5" y2="67" gradientUnits="userSpaceOnUse">
<stop stop-color="#777777"/>
<stop offset="1" stop-color="#2B2B2B" stop-opacity="0"/>
</linearGradient>
<linearGradient id="paint1_linear" x1="70.4545" y1="2.28125" x2="2.01752" y2="70.4626" gradientUnits="userSpaceOnUse">
<stop stop-color="#CDCDCD"/>
<stop offset="1" stop-color="#454545"/>
</linearGradient>
<linearGradient id="paint2_linear" x1="32.9545" y1="0" x2="32.9545" y2="65.9091" gradientUnits="userSpaceOnUse">
<stop stop-color="#4C802D"/>
<stop offset="1" stop-color="#23261B" stop-opacity="0"/>
</linearGradient>
<linearGradient id="paint3_linear" x1="70.4545" y1="2.27273" x2="2.27272" y2="70.4545" gradientUnits="userSpaceOnUse">
<stop stop-color="#9CC855"/>
<stop offset="1" stop-color="#4C8700"/>
</linearGradient>
<linearGradient id="paint4_linear" x1="64.9394" y1="67.1875" x2="62.9577" y2="78.0769" gradientUnits="userSpaceOnUse">
<stop stop-color="#FFD66C"/>
<stop offset="1" stop-color="#7C4F45"/>
</linearGradient>
<linearGradient id="paint5_linear" x1="56.671" y1="67.1875" x2="53.9794" y2="77.7517" gradientUnits="userSpaceOnUse">
<stop stop-color="#FFD66C"/>
<stop offset="1" stop-color="#7C4F45"/>
</linearGradient>
<linearGradient id="paint6_linear" x1="40.9394" y1="67.1875" x2="38.9577" y2="78.0769" gradientUnits="userSpaceOnUse">
<stop stop-color="#FFD66C"/>
<stop offset="1" stop-color="#7C4F45"/>
</linearGradient>
<linearGradient id="paint7_linear" x1="39.6263" y1="68.1563" x2="37.5986" y2="77.07" gradientUnits="userSpaceOnUse">
<stop stop-color="#FFD66C"/>
<stop offset="1" stop-color="#7C4F45"/>
</linearGradient>
<linearGradient id="paint8_linear" x1="52.9394" y1="67.1875" x2="50.9577" y2="78.0769" gradientUnits="userSpaceOnUse">
<stop stop-color="#FFD66C"/>
<stop offset="1" stop-color="#7C4F45"/>
</linearGradient>
</defs>
</svg>
