<svg width="75" height="75" viewBox="0 0 75 75" fill="none" xmlns="http://www.w3.org/2000/svg">
<rect width="75" height="75" rx="5" fill="#121212"/>
<g filter="url(#filter0_i)">
<rect width="67" height="67" transform="matrix(1 0 0 -1 4 71)" fill="url(#paint0_linear)"/>
</g>
<path fill-rule="evenodd" clip-rule="evenodd" d="M0 7.70313C0 4.55338 2.54384 2 5.68182 2H69.3182C72.4562 2 75 4.55338 75 7.70312V69.2969C75 72.4466 72.4562 75 69.3182 75H5.68182C2.54384 75 0 72.4466 0 69.2969V7.70313ZM5.68182 6.5625C5.05422 6.5625 4.54545 7.07318 4.54545 7.70313L5.11364 9.98438V13.9766L5.68182 16.2578L5.11364 23.1016L4.54545 38.5V45.9141L5.11364 53.8984L4.54545 69.2969C4.54545 69.9268 5.05422 70.4375 5.68182 70.4375H69.3182C69.9458 70.4375 70.4545 69.9268 70.4545 69.2969V51.0469L69.8864 34.5078L70.4545 20.8203L69.8864 13.9766L70.4545 7.70312C70.4545 7.07318 69.9458 6.5625 69.3182 6.5625H60.7955L52.2727 5.99219L36.9318 7.13281L20.4545 7.70313L14.2045 6.5625H5.68182Z" fill="#343434"/>
<path fill-rule="evenodd" clip-rule="evenodd" d="M0 5.70313C0 2.55338 2.54384 0 5.68182 0H69.3182C72.4562 0 75 2.55338 75 5.70312V67.2969C75 70.4466 72.4562 73 69.3182 73H5.68182C2.54384 73 0 70.4466 0 67.2969V5.70313ZM5.68182 4.5625C5.05422 4.5625 4.54545 5.07318 4.54545 5.70313L3.97727 9.69531L4.54545 11.9766L3.97727 17.1094L4.54545 20.5312L5.11364 33.6484L3.97727 45.0547L4.54545 56.4609V67.2969C4.54545 67.9268 5.05422 68.4375 5.68182 68.4375H14.7727H21.0227H27.8409H37.5H45.4545H46.5909H49.4318H53.4091H61.9318H69.3182C69.9458 68.4375 70.4545 67.9268 70.4545 67.2969L71.0227 49.6172L70.4545 36.5L69.8864 28.5156L71.0227 21.1016L70.4545 5.70312C70.4545 5.07318 69.9458 4.5625 69.3182 4.5625L61.9318 3.99219L53.4091 4.5625H37.5L34.0909 3.99219L33.3779 4.20691C32.0497 4.60685 30.6094 4.31183 29.5455 3.42188L26.7045 4.5625L25.8523 4.84766L21.5909 4.5625L13.6364 3.99219L5.68182 4.5625Z" fill="url(#paint1_linear)"/>
<defs>
<filter id="filter0_i" x="4" y="4" width="67" height="67" filterUnits="userSpaceOnUse" color-interpolation-filters="sRGB">
<feFlood flood-opacity="0" result="BackgroundImageFix"/>
<feBlend mode="normal" in="SourceGraphic" in2="BackgroundImageFix" result="shape"/>
<feColorMatrix in="SourceAlpha" type="matrix" values="0 0 0 0 0 0 0 0 0 0 0 0 0 0 0 0 0 0 127 0" result="hardAlpha"/>
<feOffset/>
<feGaussianBlur stdDeviation="5"/>
<feComposite in2="hardAlpha" operator="arithmetic" k2="-1" k3="1"/>
<feColorMatrix type="matrix" values="0 0 0 0 0 0 0 0 0 0 0 0 0 0 0 0 0 0 1 0"/>
<feBlend mode="normal" in2="shape" result="effect1_innerShadow"/>
</filter>
<linearGradient id="paint0_linear" x1="33.5" y1="0" x2="33.5" y2="67" gradientUnits="userSpaceOnUse">
<stop stop-color="#777777"/>
<stop offset="1" stop-color="#2B2B2B" stop-opacity="0"/>
</linearGradient>
<linearGradient id="paint1_linear" x1="70.4545" y1="2.28125" x2="2.01752" y2="70.4626" gradientUnits="userSpaceOnUse">
<stop stop-color="#CDCDCD"/>
<stop offset="1" stop-color="#454545"/>
</linearGradient>
</defs>
</svg>
