<svg width="51" height="35" viewBox="0 0 51 35" fill="none" xmlns="http://www.w3.org/2000/svg">
<rect width="51" height="35" rx="5" fill="#121212"/>
<g filter="url(#filter0_i)">
<rect width="43" height="27" transform="matrix(1 0 0 -1 4 31)" fill="url(#paint0_linear)"/>
</g>
<path fill-rule="evenodd" clip-rule="evenodd" d="M0 4.57813C0 3.15427 1.72981 2 3.86364 2H47.1364C49.2702 2 51 3.15427 51 4.57812V32.4219C51 33.8457 49.2702 35 47.1364 35H3.86364C1.72981 35 0 33.8457 0 32.4219V4.57813ZM3.86364 4.0625C3.43687 4.0625 3.09091 4.29335 3.09091 4.57813L3.47727 5.60938V7.41406L3.86364 8.44531L3.47727 11.5391L3.09091 18.5V21.8516L3.47727 25.4609L3.09091 32.4219C3.09091 32.7066 3.43687 32.9375 3.86364 32.9375H47.1364C47.5631 32.9375 47.9091 32.7066 47.9091 32.4219V24.1719L47.5227 16.6953L47.9091 10.5078L47.5227 7.41406L47.9091 4.57812C47.9091 4.29335 47.5631 4.0625 47.1364 4.0625H41.3409L35.5455 3.80469L25.1136 4.32031L13.9091 4.57813L9.65909 4.0625H3.86364Z" fill="#343434"/>
<path fill-rule="evenodd" clip-rule="evenodd" d="M0 2.57813C0 1.15427 1.72981 0 3.86364 0H47.1364C49.2702 0 51 1.15427 51 2.57812V30.4219C51 31.8457 49.2702 33 47.1364 33H3.86364C1.72981 33 0 31.8457 0 30.4219V2.57813ZM3.86364 2.0625C3.43687 2.0625 3.09091 2.29335 3.09091 2.57813L2.70455 4.38281L3.09091 5.41406L2.70455 7.73438L3.09091 9.28125L3.47727 15.2109L2.70455 20.3672L3.09091 25.5234V30.4219C3.09091 30.7066 3.43687 30.9375 3.86364 30.9375H10.0455H14.2955H18.9318H25.5H30.9091H31.6818H33.6136H36.3182H42.1136H47.1364C47.5631 30.9375 47.9091 30.7066 47.9091 30.4219L48.2955 22.4297L47.9091 16.5L47.5227 12.8906L48.2955 9.53906L47.9091 2.57812C47.9091 2.29335 47.5631 2.0625 47.1364 2.0625L42.1136 1.80469L36.3182 2.0625H25.5L23.1818 1.80469L22.5504 1.93108C21.711 2.09912 20.8391 1.96293 20.0909 1.54688L18.1591 2.0625L17.5795 2.19141L14.6818 2.0625L9.27273 1.80469L3.86364 2.0625Z" fill="url(#paint1_linear)"/>
<g filter="url(#filter1_i)">
<rect width="41.9091" height="25.9091" transform="matrix(1 0 0 -1 4.54547 30.4546)" fill="url(#paint2_linear)"/>
</g>
<path fill-rule="evenodd" clip-rule="evenodd" d="M0 3.82952C0 2.41743 1.72981 1.27271 3.86364 1.27271H47.1364C49.2702 1.27271 51 2.41743 51 3.82952V31.4432C51 32.8552 49.2702 34 47.1364 34H3.86364C1.72981 34 0 32.8553 0 31.4432V3.82952ZM3.86364 3.31816C3.43687 3.31816 3.09091 3.54711 3.09091 3.82952V31.4432C3.09091 31.7256 3.43687 31.9545 3.86364 31.9545H47.1364C47.5631 31.9545 47.9091 31.7256 47.9091 31.4432V3.82952C47.9091 3.54711 47.5631 3.31816 47.1364 3.31816H3.86364Z" fill="#3F5833"/>
<path fill-rule="evenodd" clip-rule="evenodd" d="M0 2.55682C0 1.14473 1.72981 0 3.86364 0H47.1364C49.2702 0 51 1.14473 51 2.55682V30.1705C51 31.5825 49.2702 32.7273 47.1364 32.7273H3.86364C1.72981 32.7273 0 31.5825 0 30.1705V2.55682ZM3.86364 2.04545C3.43687 2.04545 3.09091 2.2744 3.09091 2.55682V30.1705C3.09091 30.4529 3.43687 30.6818 3.86364 30.6818H47.1364C47.5631 30.6818 47.9091 30.4529 47.9091 30.1705V2.55682C47.9091 2.2744 47.5631 2.04545 47.1364 2.04545H3.86364Z" fill="url(#paint3_linear)"/>
<path fill-rule="evenodd" clip-rule="evenodd" d="M34.4561 30.6843L36 33.0001H32.5263L30.9824 30.6843H34.4561Z" fill="url(#paint4_linear)"/>
<g filter="url(#filter2_d)">
<path fill-rule="evenodd" clip-rule="evenodd" d="M32.5263 33.0001L30.5965 30.1053H27.1228L29.0526 33.0001H32.5263Z" fill="url(#paint5_linear)"/>
</g>
<path fill-rule="evenodd" clip-rule="evenodd" d="M19.0175 30.6842L17.4737 33H14L15.5439 30.6842H19.0175Z" fill="url(#paint6_linear)"/>
<g filter="url(#filter3_d)">
<path fill-rule="evenodd" clip-rule="evenodd" d="M20.9474 33L22.8772 30.1052H19.4035L17.4737 33H20.9474Z" fill="url(#paint7_linear)"/>
</g>
<g filter="url(#filter4_d)">
<path d="M23.2632 29.5264H26.7369L29.0527 33.0001H20.9474L23.2632 29.5264Z" fill="url(#paint8_linear)"/>
</g>
<defs>
<filter id="filter0_i" x="4" y="4" width="43" height="27" filterUnits="userSpaceOnUse" color-interpolation-filters="sRGB">
<feFlood flood-opacity="0" result="BackgroundImageFix"/>
<feBlend mode="normal" in="SourceGraphic" in2="BackgroundImageFix" result="shape"/>
<feColorMatrix in="SourceAlpha" type="matrix" values="0 0 0 0 0 0 0 0 0 0 0 0 0 0 0 0 0 0 127 0" result="hardAlpha"/>
<feOffset/>
<feGaussianBlur stdDeviation="5"/>
<feComposite in2="hardAlpha" operator="arithmetic" k2="-1" k3="1"/>
<feColorMatrix type="matrix" values="0 0 0 0 0 0 0 0 0 0 0 0 0 0 0 0 0 0 1 0"/>
<feBlend mode="normal" in2="shape" result="effect1_innerShadow"/>
</filter>
<filter id="filter1_i" x="4.54547" y="4.54541" width="41.9091" height="25.9091" filterUnits="userSpaceOnUse" color-interpolation-filters="sRGB">
<feFlood flood-opacity="0" result="BackgroundImageFix"/>
<feBlend mode="normal" in="SourceGraphic" in2="BackgroundImageFix" result="shape"/>
<feColorMatrix in="SourceAlpha" type="matrix" values="0 0 0 0 0 0 0 0 0 0 0 0 0 0 0 0 0 0 127 0" result="hardAlpha"/>
<feOffset/>
<feGaussianBlur stdDeviation="2.5"/>
<feComposite in2="hardAlpha" operator="arithmetic" k2="-1" k3="1"/>
<feColorMatrix type="matrix" values="0 0 0 0 0 0 0 0 0 0 0 0 0 0 0 0 0 0 1 0"/>
<feBlend mode="normal" in2="shape" result="effect1_innerShadow"/>
</filter>
<filter id="filter2_d" x="25.1228" y="28.1052" width="9.40351" height="6.89474" filterUnits="userSpaceOnUse" color-interpolation-filters="sRGB">
<feFlood flood-opacity="0" result="BackgroundImageFix"/>
<feColorMatrix in="SourceAlpha" type="matrix" values="0 0 0 0 0 0 0 0 0 0 0 0 0 0 0 0 0 0 127 0"/>
<feOffset/>
<feGaussianBlur stdDeviation="1"/>
<feColorMatrix type="matrix" values="0 0 0 0 0 0 0 0 0 0 0 0 0 0 0 0 0 0 0.5 0"/>
<feBlend mode="normal" in2="BackgroundImageFix" result="effect1_dropShadow"/>
<feBlend mode="normal" in="SourceGraphic" in2="effect1_dropShadow" result="shape"/>
</filter>
<filter id="filter3_d" x="15.4737" y="28.1052" width="9.40351" height="6.89474" filterUnits="userSpaceOnUse" color-interpolation-filters="sRGB">
<feFlood flood-opacity="0" result="BackgroundImageFix"/>
<feColorMatrix in="SourceAlpha" type="matrix" values="0 0 0 0 0 0 0 0 0 0 0 0 0 0 0 0 0 0 127 0"/>
<feOffset/>
<feGaussianBlur stdDeviation="1"/>
<feColorMatrix type="matrix" values="0 0 0 0 0 0 0 0 0 0 0 0 0 0 0 0 0 0 0.5 0"/>
<feBlend mode="normal" in2="BackgroundImageFix" result="effect1_dropShadow"/>
<feBlend mode="normal" in="SourceGraphic" in2="effect1_dropShadow" result="shape"/>
</filter>
<filter id="filter4_d" x="18.9474" y="27.5264" width="12.1053" height="7.47368" filterUnits="userSpaceOnUse" color-interpolation-filters="sRGB">
<feFlood flood-opacity="0" result="BackgroundImageFix"/>
<feColorMatrix in="SourceAlpha" type="matrix" values="0 0 0 0 0 0 0 0 0 0 0 0 0 0 0 0 0 0 127 0"/>
<feOffset/>
<feGaussianBlur stdDeviation="1"/>
<feColorMatrix type="matrix" values="0 0 0 0 0 0 0 0 0 0 0 0 0 0 0 0 0 0 0.5 0"/>
<feBlend mode="normal" in2="BackgroundImageFix" result="effect1_dropShadow"/>
<feBlend mode="normal" in="SourceGraphic" in2="effect1_dropShadow" result="shape"/>
</filter>
<linearGradient id="paint0_linear" x1="21.5" y1="0" x2="21.5" y2="27" gradientUnits="userSpaceOnUse">
<stop stop-color="#777777"/>
<stop offset="1" stop-color="#2B2B2B" stop-opacity="0"/>
</linearGradient>
<linearGradient id="paint1_linear" x1="47.9091" y1="1.03125" x2="19.3413" y2="43.8436" gradientUnits="userSpaceOnUse">
<stop stop-color="#CDCDCD"/>
<stop offset="1" stop-color="#454545"/>
</linearGradient>
<linearGradient id="paint2_linear" x1="20.9545" y1="0" x2="20.9545" y2="25.9091" gradientUnits="userSpaceOnUse">
<stop stop-color="#4C802D"/>
<stop offset="1" stop-color="#23261B" stop-opacity="0"/>
</linearGradient>
<linearGradient id="paint3_linear" x1="47.9091" y1="1.02273" x2="19.6683" y2="43.6976" gradientUnits="userSpaceOnUse">
<stop stop-color="#9CC855"/>
<stop offset="1" stop-color="#4C8700"/>
</linearGradient>
<linearGradient id="paint4_linear" x1="40.5965" y1="29.6349" x2="39.4492" y2="35.9393" gradientUnits="userSpaceOnUse">
<stop stop-color="#FFD66C"/>
<stop offset="1" stop-color="#7C4F45"/>
</linearGradient>
<linearGradient id="paint5_linear" x1="35.8095" y1="29.6349" x2="34.2513" y2="35.7511" gradientUnits="userSpaceOnUse">
<stop stop-color="#FFD66C"/>
<stop offset="1" stop-color="#7C4F45"/>
</linearGradient>
<linearGradient id="paint6_linear" x1="26.7018" y1="29.6348" x2="25.5545" y2="35.9392" gradientUnits="userSpaceOnUse">
<stop stop-color="#FFD66C"/>
<stop offset="1" stop-color="#7C4F45"/>
</linearGradient>
<linearGradient id="paint7_linear" x1="25.9415" y1="30.1957" x2="24.7676" y2="35.3563" gradientUnits="userSpaceOnUse">
<stop stop-color="#FFD66C"/>
<stop offset="1" stop-color="#7C4F45"/>
</linearGradient>
<linearGradient id="paint8_linear" x1="33.6491" y1="29.6349" x2="32.5018" y2="35.9393" gradientUnits="userSpaceOnUse">
<stop stop-color="#FFD66C"/>
<stop offset="1" stop-color="#7C4F45"/>
</linearGradient>
</defs>
</svg>
